<svg height="32" width="267" xmlns="http://www.w3.org/2000/svg">
  <path d="M6.4 4.137l.078 4.214h.078c.859-2.341 2.966-4.292 6.01-4.292 3.98 0 5.23 1.95 5.23 5.775v7.493c0 2.263.155 4.683.702 6.4h-6.4c.546-1.717.624-3.747.624-6.166v-7.259c0-1.717-.702-2.575-2.654-2.575-1.483 0-2.575.39-3.356 1.17v8.586c0 2.497.078 4.527.625 6.166H.78c.625-1.795.703-4.137.703-6.4v-6.947C1.483 8.585.78 6.868 0 6.01zm21.073 0c4.995 0 6.79 1.95 6.79 6.01v8.507c0 1.56.625 1.95 1.796 1.95.234 0 .858-.077 1.014-.311-.078.624-.234.858-.312 1.248-.624 1.561-1.561 2.654-3.746 2.654-2.498 0-3.747-1.717-3.747-3.512h-.078c-.858 2.497-2.42 3.512-4.917 3.512-3.122 0-5.073-1.795-5.073-4.76 0-3.045 2.81-4.372 5.62-5.542 2.731-1.093 4.292-1.873 4.292-3.825v-.39c0-2.185-.702-3.278-2.732-3.278-1.248 0-1.717.624-2.029 1.795-.39 1.795-1.17 2.498-2.341 2.498-1.093 0-2.108-.78-2.108-2.108.078-2.653 3.825-4.448 7.571-4.448zm1.717 15.922v-6.947c-.39.625-.858.937-2.341 1.561-1.795.859-2.498 1.795-2.498 3.903 0 1.717.937 2.731 2.42 2.731 1.56.078 2.029-.468 2.42-1.248zm19.122 1.639c-.702 1.56-2.341 2.497-4.683 2.497-3.98 0-5.463-1.951-5.463-5.62V7.26h-1.873v-.157L43.239 0l.078.078v4.527h4.917l-.468 2.732h-4.37v10.536c0 2.03.858 2.81 2.653 2.81 1.405 0 2.107-.234 2.731-.546-.156.624-.156 1.014-.468 1.56zM55.024 4.37v13.346c0 1.951.78 3.122 2.732 3.122 1.64 0 2.888-.546 3.59-1.483v-9.054c0-1.95-.234-3.59-.858-5.307l5.932-.624v13.658c0 2.966.312 4.371.78 5.776h-5.776V19.98h-.078c-.858 2.498-2.42 4.293-5.775 4.293-4.215 0-5.776-2.497-5.776-6.322v-7.649c0-1.95-.234-3.59-.858-5.307zm19.59 4.683c.86-3.59 2.498-4.917 4.684-4.917 1.95 0 2.965 1.014 2.965 2.653 0 1.483-.858 2.654-2.341 2.654-.859 0-1.405-.39-1.795-.78-.468-.39-.78-.86-1.17-.86-1.016 0-2.186 1.718-2.186 4.684v4.76c0 2.342.234 4.762.624 6.557h-6.4c.625-1.795.703-4.137.703-6.4v-6.946c0-1.874-.703-3.59-1.483-4.45l6.322-1.794.078.078v4.839zm16.157 15.22c-4.917 0-8.976-3.279-8.976-9.523 0-6.4 3.825-10.614 9.132-10.614 4.995 0 7.336 3.2 7.336 9.131H86.946v.625c0 4.76 2.498 6.712 5.854 6.712 3.044 0 4.449-1.249 5.307-2.107l.078.312c-.858 2.731-3.2 5.463-7.414 5.463zm-3.903-12.41l6.4-.625c-.078-3.044-.546-4.917-2.653-4.917-2.186.078-3.435 1.873-3.747 5.541zm24.352-7.727c4.995 0 6.79 1.95 6.79 6.01v8.507c0 1.56.624 1.95 1.795 1.95.234 0 .858-.077 1.015-.311-.079.624-.235.858-.313 1.248-.624 1.561-1.56 2.654-3.746 2.654-2.498 0-3.746-1.717-3.746-3.512h-.078c-.859 2.497-2.42 3.512-4.917 3.512-3.122 0-5.074-1.795-5.074-4.76 0-3.045 2.81-4.372 5.62-5.542 2.732-1.093 4.293-1.873 4.293-3.825v-.39c0-2.185-.703-3.278-2.732-3.278-1.249 0-1.717.624-2.03 1.795-.39 1.795-1.17 2.498-2.34 2.498-1.094 0-2.108-.78-2.108-2.108 0-2.653 3.746-4.448 7.57-4.448zm1.717 15.922v-6.947c-.39.625-.859.937-2.342 1.561-1.795.859-2.497 1.795-2.497 3.903 0 1.717.936 2.731 2.42 2.731 1.482.078 2.028-.468 2.419-1.248zm20.136-14.986l.234 4.059h-.078c-1.405-1.561-2.888-2.654-5.151-2.654-1.56 0-2.498.624-2.498 1.951s.703 1.951 3.825 3.278c3.278 1.327 5.307 2.888 5.307 6.01 0 3.278-1.717 6.556-7.18 6.556-2.264 0-4.45-.468-6.088-1.327l-.234-4.917h.234c1.56 1.951 3.746 3.903 6.088 3.903 2.341 0 2.888-.859 2.888-2.342 0-1.717-.859-2.185-3.825-3.434-3.122-1.327-5.23-2.81-5.23-6.01 0-3.746 2.889-5.931 6.713-5.931 2.42-.078 3.824.312 4.995.858zm13.58 16.625c-.702 1.56-2.34 2.497-4.682 2.497-3.98 0-5.464-1.951-5.464-5.62V7.26h-1.873v-.157L141.58 0l.079.078v4.527h4.917l-.469 2.732h-4.37v10.536c0 2.03.858 2.81 2.653 2.81 1.405 0 2.108-.234 2.732-.546-.156.624-.234 1.014-.468 1.56zm6.79-12.644c.86-3.59 2.498-4.917 4.684-4.917 1.951 0 2.966 1.014 2.966 2.653 0 1.483-.859 2.654-2.342 2.654-.858 0-1.405-.39-1.795-.78-.468-.39-.78-.86-1.17-.86-1.015 0-2.186 1.718-2.186 4.684v4.76c0 2.342.234 4.762.624 6.557h-6.4c.625-1.795.703-4.137.703-6.4v-6.946c0-1.874-.703-3.59-1.483-4.45l6.322-1.794.078.078v4.839zm26.07 5.073c0 6.166-4.528 10.068-9.289 10.068-4.917 0-9.6-3.668-9.6-10.068 0-6.166 4.527-10.068 9.288-10.068 4.917.078 9.6 3.746 9.6 10.068zm-5.62.156c0-6.322-1.483-7.805-3.98-7.805-2.342 0-3.747 1.717-3.747 7.649 0 6.322 1.483 7.805 3.98 7.805 2.342-.078 3.747-1.717 3.747-7.65zm12.644-10.146l.078 4.214h.078c.858-2.341 2.966-4.292 6.01-4.292 3.98 0 5.229 1.95 5.229 5.775v7.493c0 2.263.156 4.683.702 6.4h-6.4c.546-1.717.625-3.747.625-6.166v-7.259c0-1.717-.703-2.575-2.654-2.575-1.483 0-2.576.39-3.356 1.17v8.586c0 2.497.078 4.527.624 6.166h-6.4c.625-1.795.703-4.137.703-6.4v-6.947c0-1.873-.703-3.59-1.483-4.448zm32.234 9.99c0 6.166-4.527 10.068-9.288 10.068-4.917 0-9.6-3.668-9.6-10.068 0-6.166 4.527-10.068 9.288-10.068 4.839.078 9.6 3.746 9.6 10.068zm-5.62.156c0-6.322-1.483-7.805-3.98-7.805-2.342 0-3.747 1.717-3.747 7.649 0 6.322 1.483 7.805 3.98 7.805 2.342-.078 3.747-1.717 3.747-7.65zm12.644-10.146l.078 4.214h.078c.859-2.341 2.732-4.292 5.776-4.292 3.512 0 4.683 1.56 4.917 4.292h.078c.858-2.341 2.732-4.292 5.776-4.292 3.98 0 5.073 1.95 5.073 5.775v7.493c0 2.263.156 4.683.702 6.4h-6.4c.547-1.717.625-3.747.625-6.166v-7.259c0-1.717-.547-2.575-2.42-2.575-1.483 0-2.341.312-3.2 1.17v8.352c0 2.263.156 4.683.702 6.4h-6.556c.547-1.717.625-3.747.625-6.166v-7.18c0-1.718-.547-2.576-2.42-2.576-1.483 0-2.263.234-3.2 1.17v8.586c0 2.497.078 4.527.625 6.166h-6.4c.624-1.795.702-4.137.702-6.4v-6.947c0-1.873-.702-3.59-1.483-4.448z"/>
  <path d="M250.537 9.99c-.937-2.497-1.717-3.98-2.576-5.541h6.946c-.234 1.483.234 2.731.859 4.917l2.575 7.727h.079l2.653-7.883c.625-1.717.78-3.278.312-4.761h4.84c-.86 1.483-1.796 3.2-2.732 5.775l-3.98 11.005c-2.654 7.18-5.074 10.069-8.586 10.069-1.795 0-2.81-.937-2.81-2.342 0-1.17.859-1.951 1.951-1.951 1.171 0 1.561.936 2.342.936 1.014 0 2.42-2.185 3.278-4.682z"/>
</svg>
